<svg width="244" height="225" viewBox="0 0 244 225" fill="none" xmlns="http://www.w3.org/2000/svg">
<rect y="0.4375" width="243.911" height="224" rx="112" fill="white"/>
<path fill-rule="evenodd" clip-rule="evenodd" d="M121.433 119.151C118.366 119.151 115.309 118.138 112.752 116.113L92.1955 99.5393C90.7151 98.3476 90.4859 96.1797 91.673 94.7038C92.8692 93.2326 95.0326 92.9988 96.5084 94.1859L117.046 110.741C119.627 112.785 123.261 112.785 125.86 110.723L146.192 94.1951C147.668 92.9897 149.831 93.2188 151.032 94.6947C152.228 96.1659 152.003 98.3293 150.532 99.5301L130.164 116.085C127.588 118.129 124.508 119.151 121.433 119.151" fill="#65558F"/>
<mask id="mask0_1373_8117" style="mask-type:luminance" maskUnits="userSpaceOnUse" x="72" y="66" width="99" height="90">
<path fill-rule="evenodd" clip-rule="evenodd" d="M72.0384 66.6045H170.58V155.979H72.0384V66.6045Z" fill="white"/>
</mask>
<g mask="url(#mask0_1373_8117)">
<path fill-rule="evenodd" clip-rule="evenodd" d="M98.8 149.104H143.808C143.818 149.095 143.854 149.104 143.882 149.104C149.111 149.104 153.75 147.234 157.306 143.682C161.436 139.571 163.705 133.663 163.705 127.049V95.5712C163.705 82.7699 155.335 73.4795 143.808 73.4795H98.8092C87.2821 73.4795 78.913 82.7699 78.913 95.5712V127.049C78.913 133.663 81.1863 139.571 85.3113 143.682C88.868 147.234 93.5109 149.104 98.7359 149.104H98.8ZM98.7221 155.979C91.65 155.979 85.3342 153.413 80.4575 148.554C75.0263 143.137 72.038 135.501 72.038 127.049V95.5712C72.038 79.0574 83.5467 66.6045 98.8092 66.6045H143.808C159.071 66.6045 170.58 79.0574 170.58 95.5712V127.049C170.58 135.501 167.591 143.137 162.16 148.554C157.288 153.408 150.968 155.979 143.882 155.979H143.808H98.8092H98.7221Z" fill="#65558F"/>
</g>
</svg>
