<svg width="1440" height="1024" viewBox="0 0 1440 1024" fill="none" xmlns="http://www.w3.org/2000/svg">
<mask id="mask0_476_25618" style="mask-type:alpha" maskUnits="userSpaceOnUse" x="0" y="0" width="1440" height="1024">
<rect width="1440" height="1024" fill="#D9D9D9"/>
</mask>
<g mask="url(#mask0_476_25618)">
<path d="M384 0V41.5649C384 83.1299 384 166.017 347.6 249.632C311.746 332.398 238.129 415.649 180.462 498.052C122.25 581.667 78.6248 665.281 85.8503 747.684C93.6209 830.935 99.8921 932.385 129.475 1016C158.513 1098.89 209.5 1163.33 194.913 1246.95C180.871 1329.47 150.879 1412.97 129.475 1495.37C107.254 1578.86 93.6209 1661.39 85.8503 1703.8L78.6249 1745H34.9999V1703.44C34.9999 1661.87 34.9999 1578.98 34.9999 1495.37C34.9999 1412.6 34.9999 1329.35 34.9999 1246.95C34.9999 1163.33 34.9999 1079.72 34.9999 997.316C34.9999 914.065 34.9999 831.299 34.9999 747.684C34.9999 664.797 34.9999 581.667 34.9999 498.052C34.9999 415.528 34.9999 332.035 34.9999 249.632C34.9999 166.139 34.9999 83.6146 34.9999 41.2014V0L384 0Z" fill="#074D3B"/>
<path d="M327 0V34.6597C327 69.3194 327 138.437 294.876 208.16C263.234 277.177 198.266 346.597 147.373 415.31C95.9999 485.034 57.4999 554.758 63.8764 623.471C70.7343 692.891 121.266 761.908 147.373 831.631C173 900.748 173 970.068 160.126 1039.79C147.734 1108.61 121.266 1178.23 102.376 1246.94C82.7655 1316.56 70.7343 1385.38 63.8764 1420.75L57.4999 1455.1H18.9999V1420.44C18.9999 1385.78 18.9999 1316.67 18.9999 1246.94C18.9999 1177.93 18.9999 1108.5 18.9999 1039.79C18.9999 970.068 18.9999 900.344 18.9999 831.631C18.9999 762.211 18.9999 693.194 18.9999 623.471C18.9999 554.353 18.9999 485.034 18.9999 415.31C18.9999 346.496 18.9999 276.874 18.9999 208.16C18.9999 138.538 18.9999 69.7236 18.9999 34.3566V0H327Z" fill="#085D46"/>
<path d="M254.999 -1L255.081 31.0757C255.163 63.1515 255.327 127.116 228.593 191.71C202.261 255.649 148.023 320.033 105.57 383.733C62.7173 448.368 30.644 512.977 36.1462 576.553C42.0532 640.784 84.5297 704.546 106.557 769.016C128.179 832.925 128.343 897.077 117.729 961.63C107.515 1025.34 85.516 1089.83 69.8618 1153.46C53.6052 1217.93 43.6937 1281.64 38.035 1314.39L32.7769 1346.2L0.538419 1346.28L0.45631 1314.2C0.3742 1282.13 0.210461 1218.16 0.045285 1153.64C-0.118215 1089.77 -0.282673 1025.52 -0.445455 961.932C-0.610631 897.407 -0.775807 832.881 -0.938589 769.291C-1.10305 705.046 -1.26655 641.175 -1.43172 576.649C-1.59546 512.685 -1.75968 448.534 -1.92486 384.008C-2.08788 320.324 -2.25281 255.892 -2.4156 192.302C-2.58053 127.87 -2.74356 64.1857 -2.82734 31.4554L-2.90873 -0.339794L254.999 -1Z" fill="#067658"/>
</g>
</svg>
