<svg width="1440" height="1024" viewBox="0 0 1440 1024" fill="none" xmlns="http://www.w3.org/2000/svg">
<mask id="mask0_1373_8110" style="mask-type:alpha" maskUnits="userSpaceOnUse" x="0" y="0" width="1440" height="1024">
<rect x="1440" width="1024" height="1440" transform="rotate(90 1440 0)" fill="#D9D9D9"/>
</mask>
<g mask="url(#mask0_1373_8110)">
<path d="M1440 273.066H1381.55C1323.1 273.066 1206.54 273.066 1088.96 247.182C972.565 221.686 855.493 169.336 739.614 128.328C622.031 86.9331 504.448 55.9108 388.569 61.0489C271.498 66.5747 128.833 71.0342 11.25 92.0711C-105.311 112.72 -195.938 148.978 -313.521 138.604C-429.57 128.619 -546.982 107.291 -662.861 92.0711C-780.274 76.2692 -896.323 66.5747 -955.967 61.0489L-1013.91 55.9108V24.8886L-955.456 24.8886C-897.005 24.8886 -780.444 24.8886 -662.861 24.8886C-546.471 24.8886 -429.4 24.8886 -313.521 24.8886C-195.938 24.8886 -78.3545 24.8886 37.5244 24.8886C154.596 24.8886 270.986 24.8886 388.569 24.8886C505.13 24.8886 622.031 24.8886 739.614 24.8886C855.664 24.8886 973.076 24.8886 1088.96 24.8886C1206.37 24.8886 1322.42 24.8886 1382.06 24.8886H1440V273.066Z" fill="#074D3B"/>
<path d="M1440 232.533H1391.26C1342.52 232.533 1245.32 232.533 1147.27 209.69C1050.22 187.189 952.598 140.989 855.97 104.799C757.921 68.2665 659.872 40.8888 563.244 45.4232C465.622 50.2999 368.568 86.2332 270.519 104.799C173.322 123.022 75.8419 123.022 -22.2069 113.868C-118.977 105.055 -216.884 86.2332 -313.512 72.801C-411.418 58.8554 -508.188 50.2999 -557.923 45.4232L-606.237 40.8888V13.511H-557.497C-508.757 13.511 -411.56 13.511 -313.512 13.511C-216.457 13.511 -118.835 13.511 -22.2069 13.511C75.8419 13.511 173.891 13.511 270.519 13.511C368.141 13.511 465.195 13.511 563.244 13.511C660.441 13.511 757.921 13.511 855.97 13.511C952.74 13.511 1050.65 13.511 1147.27 13.511C1245.18 13.511 1341.95 13.511 1391.69 13.511H1440V232.533Z" fill="#085D46"/>
<path d="M1441.41 181.333L1396.3 181.391C1351.19 181.45 1261.24 181.566 1170.41 162.556C1080.49 143.83 989.953 105.261 900.376 75.0725C809.482 44.5992 718.627 21.7916 629.222 25.7043C538.898 29.9048 449.232 60.1103 358.572 75.7739C268.699 91.1499 178.486 91.2666 87.708 83.7185C-1.88487 76.4554 -92.5722 60.8116 -182.053 49.6798C-272.72 38.1195 -362.312 31.0714 -408.359 27.0474L-453.09 23.3083L-453.206 0.383161L-408.1 0.324773C-362.993 0.266384 -273.043 0.149947 -182.304 0.0324883C-92.4859 -0.0837785 -2.14141 -0.200726 87.2826 -0.316482C178.022 -0.433941 268.761 -0.551399 358.185 -0.667155C448.529 -0.784103 538.348 -0.90037 629.087 -1.01783C719.037 -1.13427 809.25 -1.25104 899.989 -1.3685C989.544 -1.48443 1080.15 -1.60172 1169.58 -1.71747C1260.18 -1.83476 1349.74 -1.95069 1395.77 -2.01027L1440.48 -2.06815L1441.41 181.333Z" fill="#067658"/>
</g>
</svg>
